/* XPM */
static char *noname[] = {
/* width height ncolors chars_per_pixel */
"32 32 389 2",
/* colors */
"   c #000000",
" . c #CFB929",
" X c #F6E342",
" o c #F0DA1B",
" O c #F5CB55",
" + c #C7A50A",
" @ c #DAA98A",
" # c #9F8146",
" $ c #F4E036",
" % c #D7C734",
" & c #EFD710",
" * c #F3E035",
" = c #C7A400",
" - c #F4E461",
" ; c #F6D36D",
" : c #A99153",
" > c #E4D344",
" , c #554411",
" < c #B37F1E",
" 1 c #715512",
" 2 c #D39679",
" 3 c #F4CB57",
" 4 c #F9ED8A",
" 5 c #EED712",
" 6 c #C6A202",
" 7 c #755C23",
" 8 c #C4A200",
" 9 c #F9E855",
" 0 c #C5A001",
" q c #644A0F",
" w c #C4A000",
" e c #F3DF2E",
" r c #EED608",
" t c #E01616",
" y c #DABF26",
" u c #F7E549",
" i c #61400C",
" p c #5E4409",
" a c #F2DC23",
" s c #FBEB64",
" d c #FAEB63",
" f c #F5E23D",
" g c #F5E668",
" h c #C7A406",
" j c #C6A405",
" k c #D6C62F",
" l c #F4E35D",
" z c #EED60B",
" x c #D9B471",
" c c #A47A72",
" v c #CBB3AC",
" b c #F7EA81",
" n c #F8EB78",
" m c #F1DC25",
" M c #735810",
" N c #FAEF91",
" B c #F3C131",
" V c #D9C13F",
" C c #E8D847",
" Z c #EEDD6E",
" A c #C89D00",
" S c #C89B00",
" D c #F3DE2A",
" F c #E8D968",
" G c #AB8029",
" H c #F0C210",
" J c #5B400C",
" K c #F6E444",
" L c #F5CC57",
" P c #FBF08B",
" I c #FAEA5F",
" U c #F5E139",
" Y c #EFD812",
" T c #F4E563",
" R c #B8A011",
" E c #FCEF82",
" W c #C99F04",
" Q c #FEF4A5",
" ! c #F8E753",
" ~ c #AA8000",
" ^ c #BC851F",
" / c #AE8F50",
" ( c #EED507",
" ) c #DBB265",
" _ c #FDF39A",
" ` c #5A420E",
" ' c #604800",
" ] c #F6E872",
" [ c #715414",
" { c #C8A706",
" } c #FAEE8D",
" | c #F8E860",
".  c #B09820",
".. c #C2A100",
".X c #C29F00",
".o c #AF825E",
".O c #D9C627",
".+ c #61470E",
".@ c #CE962D",
".# c #61430E",
".$ c #FBED70",
".% c #BE9C5C",
".& c #6E531E",
".* c #F6CE5E",
".= c #F6E340",
".- c #EF4E4E",
".; c #F5E76A",
".: c #A28C3D",
".> c #C6A307",
"., c #FAE95B",
".< c #C4A305",
".1 c #F9E95A",
".2 c #F4E034",
".3 c #C9A200",
".4 c #EFD70E",
".5 c #EED70D",
".6 c #A1711B",
".7 c #947C18",
".8 c #F6E557",
".9 c #F3D568",
".0 c #BF9F00",
".q c #CCAC1A",
".w c #F8E64F",
".e c #F7EA79",
".r c #EDD402",
".t c #7E5F09",
".y c #6E5321",
".u c #E6CE3A",
".i c #5A410A",
".p c #DECD3C",
".a c #DB2F19",
".s c #CA8F22",
".d c #694E12",
".f c #F4E037",
".g c #F0B405",
".h c #FDF082",
".j c #7D5429",
".k c #C6A400",
".l c #C6A200",
".z c #DCB66F",
".x c #64480D",
".c c #CCB313",
".v c #F3E357",
".b c #A18400",
".n c #ECDB64",
".m c #F2DD2B",
".M c #F0DB29",
".N c #F7E547",
".B c #7B5D09",
".V c #CC9327",
".C c #DCC447",
".Z c #F5CD59",
".A c #D3B627",
".S c #FBEB62",
".D c #F2DF42",
".F c #7B5E2A",
".G c #F5E23B",
".H c #F0D915",
".J c #C68D21",
".K c #8D6F35",
".L c #C7A204",
".P c #A88B00",
".I c #F9E856",
".U c #654811",
".Y c #C3A200",
".T c #F3DF2F",
".R c #C3A000",
".E c #EED609",
".W c #C7B0B0",
".Q c #62440E",
".! c #F5E452",
".~ c #DEC64C",
".^ c #F2DC24",
"./ c #F7E975",
".( c #BA8675",
".) c #AF7D1E",
"._ c #EFDE4C",
".` c #C6AC06",
".' c #DCC340",
".] c #F5E23E",
".[ c #684C17",
".{ c #F7D575",
".} c #C6A406",
".| c #664C15",
"X  c #987F1B",
"X. c #C5A205",
"XX c #2F2400",
"Xo c #C4B125",
"XO c #EBD313",
"X+ c #EED60C",
"X@ c #404000",
"X# c #DCB56B",
"X$ c #C09C00",
"X% c #E4D241",
"X& c #FBF29D",
"X* c #F0C20E",
"X= c #5D400C",
"X- c #F0E050",
"X; c #EFC00D",
"X: c #D9AE5E",
"X> c #B7A022",
"X, c #CB9022",
"X< c #F3C132",
"X1 c #D8C114",
"X2 c #FAEA5D",
"X3 c #D0BC16",
"X4 c #C6A369",
"X5 c #C7A300",
"X6 c #FCF3AB",
"X7 c #CF9933",
"X8 c #C89D01",
"X9 c #F1DD33",
"X0 c #F8E751",
"Xq c #DAC623",
"Xw c #EDD504",
"Xe c #FBF0A0",
"Xr c #FCED6C",
"Xt c #5B400D",
"Xy c #F7E446",
"Xu c #DECE3E",
"Xi c #F2E14B",
"Xp c #CC9226",
"Xa c #FBF196",
"Xs c #F1DB1F",
"Xd c #916717",
"Xf c #F7D77B",
"Xg c #F4CC57",
"Xh c #C4B100",
"Xj c #F5E13A",
"Xk c #51462E",
"Xl c #D2B41B",
"Xz c #C6A302",
"Xx c #DCB771",
"Xc c #F1DD36",
"Xv c #C49D00",
"Xb c #EED508",
"Xn c #63470E",
"Xm c #EDD507",
"XM c #DBB266",
"XN c #DC8064",
"XB c #F0DB21",
"XV c #D6BA22",
"XC c #EFD920",
"XZ c #EDDD74",
"XA c #6C4E10",
"XS c #C6A505",
"XD c #F9E958",
"XF c #654713",
"XG c #F0B200",
"XH c #634911",
"XJ c #825C15",
"XK c #A51C0D",
"XL c #F7E64C",
"XP c #EDD400",
"XI c #413100",
"XU c #765513",
"XY c #FBEC67",
"XT c #F0DA1A",
"XR c #F5E76B",
"XE c #E1CF93",
"XW c #F5CB54",
"XQ c #D5BC7A",
"X! c #F8EC8F",
"X~ c #FAE95C",
"X^ c #F7EA8E",
"X/ c #CAA202",
"X( c #F4E035",
"X) c #C8A400",
"X_ c #EFD70F",
"X` c #C8A200",
"X' c #C08820",
"X] c #F3E45F",
"X[ c #C89C00",
"X{ c #C09D02",
"X} c #AE924D",
"X| c #F2DD29",
"o  c #EDD403",
"o. c #CCAB11",
"oX c #643C0B",
"oo c #E3CC38",
"oO c #CB9124",
"o+ c #FAF094",
"o@ c #6D5217",
"o# c #8B7210",
"o$ c #F5E76E",
"o% c #ECD94E",
"o& c #CCA967",
"o* c #7C611F",
"o= c #C7A402",
"o- c #EED711",
"o; c #DBBA6F",
"o: c #D0B878",
"o> c #F6D36F",
"o, c #F1DE35",
"o< c #C5A200",
"o1 c #654A0F",
"o2 c #F9E854",
"o3 c #C5A000",
"o4 c #C59E00",
"o5 c #F2D56B",
"o6 c #E2CC4E",
"o7 c #D4A347",
"o8 c #6F541C",
"o9 c #FBF098",
"o0 c #7E4817",
"oq c #C7A405",
"ow c #836715",
"oe c #EED714",
"or c #F9E857",
"ot c #F3DF30",
"oy c #E8D443",
"ou c #F8EC81",
"oi c #EED60A",
"op c #F3E35B",
"oa c #D5C42D",
"os c #C29E00",
"od c #FFFF00",
"of c #CBAB16",
"og c #CD952C",
"oh c #F7E54B",
"oj c #FAF09A",
"ok c #5D400A",
"ol c #CBA80C",
"oz c #C7AA08",
"ox c #DAC995",
"oc c #C5A206",
"ov c #BFAA00",
"ob c #D7C632",
"on c #FF4040",
"om c #684B0E",
"oM c #EDD60C",
"oN c #CEB612",
"oB c #5C420C",
"oV c #E0C813",
"oC c #FF7B7B",
"oZ c #F6E443",
"oA c #725611",
"oS c #EEDC4F",
"oD c #DBCA39",
"oF c #AD2410",
"oG c #D9C837",
"oH c #F5E138",
"oJ c #F1DE3E",
"oK c #E9D84A",
"oL c #F4E137",
"oP c #EFD811",
"oI c #F4E562",
"oU c #D7A953",
"oY c #F8EC87",
"oT c #F3E361",
"oR c #66490F",
"oE c #F8E752",
"oW c #D7C52B",
"oQ c #F8EB7D",
"o! c #EDD505",
"o~ c #B9B3B3",
"o^ c #F7E447",
"o/ c #A68E12",
"o( c #D7BF17",
"o) c #F4E13A",
"o_ c #F5E566",
"o` c #C7A504",
"o' c #F4E565",
"o] c #C8A665",
"o[ c #EDDB72",
"o{ c #C6A303",
"o} c #DFCE57",
"o| c #BA8989",
"O  c #F8E755",
"O. c #F1E058",
"OX c #695422",
"Oo c #FBF19A",
"OO c #F8E96C",
"O+ c #F6E33F",
"O@ c #D19D3C",
"O# c #EFD817",
"O$ c #808000",
"O% c #DEC82E",
"O& c #DFC62F",
"O* c #F4E033",
"O= c #EED70C",
"O- c #B09918",
"O; c #F8E64E",
"O: c #E2D49F",
"O> c #D4AF6D",
"O, c #5E430D",
"O< c #EAD533",
"O1 c #C5AE12",
"O2 c None",
/* pixels */
"                                                                ",
"                                                X@ JoBX=        ",
"                                               ,Xn.oXNo0O,      ",
"                                             p.U 2oCon.a.x      ",
"                                          .i.y v.W.- toFoR      ",
"                                        Xt.[X4 @o~o|XKoXok      ",
"                                      .#.&o&XM.@.( c i `        ",
"                                  O$.Q.FO>X:.V ^.jXF p          ",
"          X`o3 w w w w w w w w wX$.t.K xoUoO.)om.BX{ 8          ",
"        .Ro.oT -oIoI To' gXRo$ Fo* #Xxo7X,.6XH.: b.no=          ",
"        .. yoJXPXPXPXw r.5oPX1 1 /.zO@.sXd.+X>.fo)oY.>Xh        ",
"         =.u.MXPXPo XbO=oP.co@.%X#X7.JXJo1 .X(oLXj n.Ao4        ",
"        o<oSoeXP.r (X+ &O1o8o] )ogX'XUoAO%oH.G.]O+OOo6 0        ",
"      osXS l.rXPo!oiX_XO [oxo;Xp <XAowO<Xj f.=oZXy | Zo`        ",
"      .XXlXiXPo Xb.5 Yo/ :O:XE G qX o,.GO+ XXy uXLO X!o{        ",
"       wO&XcXPo!oiX_oV 7o:XQX}.|.  $XjO+oZo^ohO;oE 9Xaof.3      ",
"      .koyXC.r (O=o-o#XkOX.d.7XooaoboG.pX% C._.!or.1 P.'.X      ",
"    od 8O. zo .E.4oN J MO-Xq.OoW k %oDXu >oKX-.8X~ I Eo[ h      ",
"    Xvol.vXPXwoiX_ Ro(Xs aX| eO*oH f X.NXLX0.I., I s.$Xeoqov    ",
"    .RXV.DXPo!oi &.HXTXs.^ D.T.2 UO+oZ uO; !XDX2.SXYXr Q.C.L    ",
"    .looX9XmoM 5O# oXB m.mot *o)XjO+ K u.wo2.1 d.$.h _X6.~ w S  ",
"    X5o% -opX] To_.;o$ ]./.eoQou 4 } No+o9OoX&ojX^XZ V +.q.Y    ",
"  .0 w w w w w w w w w w w w w w w w w w wXz w 6 {oz.`X3o}.k    ",
"    X/o5 HX*X*X*X*X*X*X*X*X*X*X*X*X*X*X*X*X;X*X*X*X*X*X*.9 j    ",
"     WXf B B B B B B B B B B B B B B B B B B B B B B B B ;ocX)  ",
"    X8.*XGXGXGXGXGXGXGXGXGXGXGXGXGXGXGXGXGXGXGXGXGXGXGXG.Z.} ~  ",
"    X8.{X< B B B B B B B B B B B B B B B B B B B B B B Bo>.< '  ",
"     AXW.gXGXGXGXGXGXGXGXGXGXGXGXGXGXGXGXGXGXGXGXGXGXGXG O.<XI  ",
"    X[ 3 L L L L L L L L L L L L L L L L L L L L L L L LXgX.XX  ",
"    .b w w w w w w w w w w w w w w w w w w w w w w w w w w.P    ",
"                                                                ",
"                                                                "
};
